<svg width="24" height="24" viewBox="0 0 24 24" fill="none" xmlns="http://www.w3.org/2000/svg">
<g clip-path="url(#clip0_500_5342)">
<path fill-rule="evenodd" clip-rule="evenodd" d="M16.5 2.25H7.5C4.60179 2.2531 2.2531 4.60179 2.25 7.5V16.5C2.2531 19.3982 4.60179 21.7469 7.5 21.75H16.5C19.3982 21.7469 21.7469 19.3982 21.75 16.5V7.5C21.7469 4.60179 19.3982 2.2531 16.5 2.25ZM12 16.5C9.51472 16.5 7.5 14.4853 7.5 12C7.5 9.51472 9.51472 7.5 12 7.5C14.4853 7.5 16.5 9.51472 16.5 12C16.4974 14.4842 14.4842 16.4974 12 16.5ZM17.625 7.5C17.0037 7.5 16.5 6.99632 16.5 6.375C16.5 5.75368 17.0037 5.25 17.625 5.25C18.2463 5.25 18.75 5.75368 18.75 6.375C18.75 6.99632 18.2463 7.5 17.625 7.5ZM15 12C15 13.6569 13.6569 15 12 15C10.3431 15 9 13.6569 9 12C9 10.3431 10.3431 9 12 9C13.6569 9 15 10.3431 15 12Z" fill="#171212"/>
</g>
<defs>
<clipPath id="clip0_500_5342">
<rect width="24" height="24" fill="white"/>
</clipPath>
</defs>
</svg>
