<svg width="65" height="65" viewBox="0 0 65 65" fill="none" xmlns="http://www.w3.org/2000/svg">
<rect x="0.330078" y="0.960938" width="64" height="64" rx="8" fill="#E50914"/>
<path d="M28.2301 41.8366C27.0634 41.1366 26.1217 40.1822 25.4051 38.9736C24.6884 37.7656 24.3301 36.4282 24.3301 34.9616C24.3301 33.0782 24.8884 31.2699 26.0051 29.5366C27.1217 27.8032 28.6551 26.2866 30.6051 24.9866C30.9717 24.7366 31.3511 24.7239 31.7431 24.9486C32.1344 25.1739 32.3301 25.5116 32.3301 25.9616V27.2616C32.3301 27.8282 32.5261 28.3032 32.9181 28.6866C33.3094 29.0699 33.7884 29.2616 34.3551 29.2616C34.6384 29.2616 34.9094 29.1992 35.1681 29.0746C35.4261 28.9492 35.6551 28.7699 35.8551 28.5366C35.9884 28.3699 36.1594 28.2656 36.3681 28.2236C36.5761 28.1822 36.7717 28.2282 36.9551 28.3616C38.0051 29.1116 38.8301 30.0699 39.4301 31.2366C40.0301 32.4032 40.3301 33.6449 40.3301 34.9616C40.3301 36.4282 39.9717 37.7656 39.2551 38.9736C38.5384 40.1822 37.5967 41.1366 36.4301 41.8366C36.7134 41.4366 36.9344 40.9989 37.0931 40.5236C37.2511 40.0489 37.3301 39.5449 37.3301 39.0116C37.3301 38.3449 37.2051 37.7159 36.9551 37.1246C36.7051 36.5326 36.3467 36.0032 35.8801 35.5366L32.3301 32.0616L28.8051 35.5366C28.3217 36.0199 27.9551 36.5532 27.7051 37.1366C27.4551 37.7199 27.3301 38.3449 27.3301 39.0116C27.3301 39.5449 27.4094 40.0489 27.5681 40.5236C27.7261 40.9989 27.9467 41.4366 28.2301 41.8366ZM32.3301 41.9616C31.4967 41.9616 30.7884 41.6739 30.2051 41.0986C29.6217 40.5239 29.3301 39.8282 29.3301 39.0116C29.3301 38.6282 29.4051 38.2576 29.5551 37.8996C29.7051 37.5409 29.9217 37.2199 30.2051 36.9366L32.3301 34.8616L34.4551 36.9366C34.7384 37.2199 34.9551 37.5366 35.1051 37.8866C35.2551 38.2366 35.3301 38.6116 35.3301 39.0116C35.3301 39.8282 35.0384 40.5239 34.4551 41.0986C33.8717 41.6739 33.1634 41.9616 32.3301 41.9616Z" fill="white"/>
</svg>
