<svg width="16" height="17" viewBox="0 0 16 17" fill="none" xmlns="http://www.w3.org/2000/svg">
<path d="M4.5 13.0632V13.3548C4.5 13.5979 4.41503 13.8046 4.24508 13.9749C4.07514 14.1452 3.86844 14.2302 3.625 14.2298C3.38156 14.2294 3.17506 14.1445 3.0055 13.9749C2.83594 13.8053 2.75078 13.5987 2.75 13.3548V9.18398C2.75 9.11593 2.75486 9.04787 2.76458 8.97982C2.77431 8.91176 2.78889 8.84857 2.80833 8.79023L3.90208 5.68398C3.97986 5.45065 4.12083 5.26107 4.325 5.11523C4.52917 4.9694 4.75764 4.89648 5.01042 4.89648H10.9896C11.2424 4.89648 11.4708 4.9694 11.675 5.11523C11.8792 5.26107 12.0201 5.45065 12.0979 5.68398L13.1917 8.79023C13.2111 8.84857 13.2257 8.91176 13.2354 8.97982C13.2451 9.04787 13.25 9.11593 13.25 9.18398V13.3548C13.25 13.5979 13.165 13.8046 12.9951 13.9749C12.8251 14.1452 12.6184 14.2302 12.375 14.2298C12.1316 14.2294 11.9251 14.1445 11.7555 13.9749C11.5859 13.8053 11.5008 13.5987 11.5 13.3548V13.0632H4.5ZM4.38333 7.81315H11.6167L11.0042 6.06315H4.99583L4.38333 7.81315ZM5.375 11.3132C5.61806 11.3132 5.82475 11.2282 5.99508 11.0582C6.16542 10.8883 6.25039 10.6816 6.25 10.4382C6.24961 10.1947 6.16464 9.98821 5.99508 9.81865C5.82553 9.6491 5.61883 9.56393 5.375 9.56315C5.13117 9.56237 4.92467 9.64754 4.7555 9.81865C4.58633 9.98976 4.50117 10.1963 4.5 10.4382C4.49883 10.68 4.584 10.8867 4.7555 11.0582C4.927 11.2297 5.1335 11.3147 5.375 11.3132ZM10.625 11.3132C10.8681 11.3132 11.0747 11.2282 11.2451 11.0582C11.4154 10.8883 11.5004 10.6816 11.5 10.4382C11.4996 10.1947 11.4146 9.98821 11.2451 9.81865C11.0755 9.6491 10.8688 9.56393 10.625 9.56315C10.3812 9.56237 10.1747 9.64754 10.0055 9.81865C9.83633 9.98976 9.75117 10.1963 9.75 10.4382C9.74883 10.68 9.834 10.8867 10.0055 11.0582C10.177 11.2297 10.3835 11.3147 10.625 11.3132Z" fill="#E50914"/>
</svg>
