<svg width="20" height="21" viewBox="0 0 20 21" fill="none" xmlns="http://www.w3.org/2000/svg">
<path d="M5.5 17.5605C5.0875 17.5605 4.7345 17.4138 4.441 17.1203C4.1475 16.8268 4.0005 16.4735 4 16.0605V4.06055C4 3.64805 4.147 3.29505 4.441 3.00155C4.735 2.70805 5.088 2.56105 5.5 2.56055H14.5C14.9125 2.56055 15.2657 2.70755 15.5597 3.00155C15.8538 3.29555 16.0005 3.64855 16 4.06055V16.0605C16 16.473 15.8533 16.8263 15.5597 17.1203C15.2662 17.4143 14.913 17.561 14.5 17.5605H5.5ZM9.25 4.06055V8.6543C9.25 8.8043 9.3095 8.9138 9.4285 8.9828C9.5475 9.0518 9.6755 9.04855 9.8125 8.97305L10.7313 8.4293C10.8563 8.3543 10.9845 8.3168 11.116 8.3168C11.2475 8.3168 11.3755 8.3543 11.5 8.4293L12.4188 8.97305C12.5563 9.04805 12.6875 9.0513 12.8125 8.9828C12.9375 8.9143 13 8.8048 13 8.6543V4.06055H9.25Z" fill="#E50914"/>
</svg>
