<svg width="20" height="21" viewBox="0 0 20 21" fill="none" xmlns="http://www.w3.org/2000/svg">
<path d="M1.75 14.5605C1.5375 14.5605 1.3595 14.4885 1.216 14.3445C1.0725 14.2005 1.0005 14.0225 1 13.8105V13.3793C1 12.8418 1.275 12.4043 1.825 12.0668C2.375 11.7293 3.1 11.5605 4 11.5605C4.1625 11.5605 4.31875 11.5638 4.46875 11.5703C4.61875 11.5768 4.7625 11.5923 4.9 11.6168C4.725 11.8793 4.59375 12.1543 4.50625 12.4418C4.41875 12.7293 4.375 13.0293 4.375 13.3418V14.5605H1.75ZM6.25 14.5605C6.0375 14.5605 5.8595 14.4885 5.716 14.3445C5.5725 14.2005 5.5005 14.0225 5.5 13.8105V13.3418C5.5 12.9418 5.6095 12.576 5.8285 12.2445C6.0475 11.913 6.35675 11.6225 6.75625 11.373C7.15575 11.1235 7.634 10.936 8.191 10.8105C8.748 10.685 9.351 10.6225 10 10.623C10.6625 10.623 11.272 10.6855 11.8285 10.8105C12.385 10.9355 12.863 11.123 13.2625 11.373C13.662 11.623 13.9683 11.9138 14.1813 12.2453C14.3943 12.5768 14.5005 12.9423 14.5 13.3418V13.8105C14.5 14.023 14.4282 14.2013 14.2847 14.3453C14.1412 14.4893 13.963 14.561 13.75 14.5605H6.25ZM15.625 14.5605V13.3418C15.625 13.0168 15.5845 12.7105 15.5035 12.423C15.4225 12.1355 15.3005 11.8668 15.1375 11.6168C15.275 11.5918 15.4158 11.5763 15.5597 11.5703C15.7037 11.5643 15.8505 11.561 16 11.5605C16.9 11.5605 17.625 11.7263 18.175 12.0578C18.725 12.3893 19 12.8298 19 13.3793V13.8105C19 14.023 18.928 14.2013 18.784 14.3453C18.64 14.4893 18.462 14.561 18.25 14.5605H15.625ZM4 10.8105C3.5875 10.8105 3.2345 10.6638 2.941 10.3703C2.6475 10.0768 2.5005 9.72355 2.5 9.31055C2.5 8.88555 2.647 8.5293 2.941 8.2418C3.235 7.9543 3.588 7.81055 4 7.81055C4.425 7.81055 4.78125 7.9543 5.06875 8.2418C5.35625 8.5293 5.5 8.88555 5.5 9.31055C5.5 9.72305 5.35625 10.0763 5.06875 10.3703C4.78125 10.6643 4.425 10.811 4 10.8105ZM16 10.8105C15.5875 10.8105 15.2345 10.6638 14.941 10.3703C14.6475 10.0768 14.5005 9.72355 14.5 9.31055C14.5 8.88555 14.647 8.5293 14.941 8.2418C15.235 7.9543 15.588 7.81055 16 7.81055C16.425 7.81055 16.7812 7.9543 17.0687 8.2418C17.3562 8.5293 17.5 8.88555 17.5 9.31055C17.5 9.72305 17.3562 10.0763 17.0687 10.3703C16.7812 10.6643 16.425 10.811 16 10.8105ZM10 10.0605C9.375 10.0605 8.84375 9.8418 8.40625 9.4043C7.96875 8.9668 7.75 8.43555 7.75 7.81055C7.75 7.17305 7.96875 6.6388 8.40625 6.2078C8.84375 5.7768 9.375 5.56105 10 5.56055C10.6375 5.56055 11.172 5.7763 11.6035 6.2078C12.035 6.6393 12.2505 7.17355 12.25 7.81055C12.25 8.43555 12.0345 8.9668 11.6035 9.4043C11.1725 9.8418 10.638 10.0605 10 10.0605Z" fill="#E50914"/>
</svg>
